<?xml version="1.0" encoding="UTF-8" standalone="no"?>
<!-- Created with Inkscape (http://www.inkscape.org/) -->

<svg
   width="256"
   height="256"
   viewBox="0 0 67.733334 67.733332"
   version="1.1"
   id="svg139"
   xml:space="preserve"
   inkscape:version="1.2.2 (b0a8486541, 2022-12-01)"
   sodipodi:docname="hellocontest.svg"
   xmlns:inkscape="http://www.inkscape.org/namespaces/inkscape"
   xmlns:sodipodi="http://sodipodi.sourceforge.net/DTD/sodipodi-0.dtd"
   xmlns="http://www.w3.org/2000/svg"
   xmlns:svg="http://www.w3.org/2000/svg"><sodipodi:namedview
     id="namedview141"
     pagecolor="#ffffff"
     bordercolor="#666666"
     borderopacity="1.0"
     inkscape:showpageshadow="2"
     inkscape:pageopacity="0.0"
     inkscape:pagecheckerboard="0"
     inkscape:deskcolor="#d1d1d1"
     inkscape:document-units="mm"
     showgrid="false"
     showguides="true"
     inkscape:lockguides="false"
     inkscape:zoom="2.5854169"
     inkscape:cx="94.568888"
     inkscape:cy="134.40772"
     inkscape:window-width="2560"
     inkscape:window-height="1376"
     inkscape:window-x="2560"
     inkscape:window-y="27"
     inkscape:window-maximized="1"
     inkscape:current-layer="g4023" /><defs
     id="defs136" /><g
     inkscape:label="Ebene 1"
     inkscape:groupmode="layer"
     id="layer1"
     transform="translate(-102.73519,-136.27092)"><g
       id="g4023"
       style="fill:#ffffff"><rect
         style="fill:#ffffff;stroke:#000000;stroke-width:0.759964;stroke-linecap:square;stroke-linejoin:miter;stroke-miterlimit:4;stroke-dasharray:none;paint-order:fill markers stroke"
         id="rect708"
         width="66.973366"
         height="66.996277"
         x="103.11517"
         y="136.65091"
         ry="2.249773" /><g
         id="g4011"
         transform="matrix(2.8702811,0,0,2.8702811,-192.14363,-254.86492)"
         style="fill:#ffffff"><g
           id="g4001"
           style="fill:#ffffff"><path
             d="m 118.44239,148.70264 c 0.12658,-0.3429 0.12658,-0.89535 0,-1.2192 l -3.56554,-8.55345 c -0.12684,-0.3429 -0.36241,-0.3429 -0.50711,0 l -3.56553,8.55345 c -0.14497,0.32385 -0.14497,0.8763 0,1.2192 l 3.56553,8.51535 c 0.14497,0.3429 0.38027,0.3429 0.50685,0 l 3.56553,-8.51535 z"
             fill="#ffcc00"
             fill-rule="evenodd"
             stroke="#000000"
             stroke-width="0.382365"
             stroke-linejoin="round"
             id="path185"
             style="fill:none" /><path
             d="m 114.41522,154.28429 c 0,-9e-5 -2.7e-4,-9e-5 -2.7e-4,0 z m 0.51431,-1.9812 c 0.19054,0 0.19054,0.1905 0,0.1905 h -0.4834 c -0.1908,0 -0.1908,-0.1905 0,-0.1905 h 0.48314 z m 0.20626,-0.3429 c 0.1908,0 0.19054,0.1905 0,0.1905 h -0.88152 c -0.1908,0 -0.1908,-0.1905 0,-0.1905 z m 0.17108,-0.32385 c 0.19081,0 0.19081,0.1905 0,0.1905 h -1.22528 c -0.1908,0 -0.1908,-0.1905 0,-0.1905 z m 0.17002,-0.3429 c 0.1908,0 0.1908,0.1905 0,0.1905 h -1.58717 c -0.1908,0 -0.1908,-0.1905 0,-0.1905 z m -1.77717,-0.13335 c -0.18255,0 -0.18281,-0.1905 0,-0.1905 h 0.86767 v -0.94509 c -0.10349,-0.0152 -0.2058,-0.0375 -0.30619,-0.0667 l -0.0898,-0.0294 -0.0861,-0.0336 -0.0813,-0.0378 -0.0759,-0.0418 -0.0704,-0.0463 -0.0645,-0.0508 -0.0573,-0.0556 -0.0495,-0.0603 -0.0408,-0.0656 -0.0304,-0.0706 -0.0192,-0.0751 -0.006,-0.0799 0.0115,-0.10081 0.0327,-0.0942 0.0504,-0.0844 0.0645,-0.0743 0.056,-0.0484 -0.0586,-0.0537 -0.0635,-0.077 -0.0499,-0.0865 -0.032,-0.0952 -0.0112,-0.10293 0.0107,-0.10848 0.0314,-0.0995 0.0487,-0.0894 0.0635,-0.0786 0.0381,-0.0349 -0.0376,-0.0344 -0.0635,-0.0783 -0.0494,-0.0889 -0.0314,-0.0992 -0.0107,-0.10795 0.011,-0.1053 0.0311,-0.0979 0.0491,-0.0884 0.0628,-0.0791 0.0576,-0.0537 -0.0546,-0.0492 -0.064,-0.0767 -0.0499,-0.0868 -0.032,-0.0963 -0.0112,-0.10319 0.006,-0.0699 0.0165,-0.0664 0.0267,-0.0635 0.0358,-0.0598 0.0437,-0.0564 0.0509,-0.0524 0.0581,-0.0487 0.0645,-0.0453 0.0704,-0.0415 0.0759,-0.0381 0.0818,-0.0344 0.0866,-0.0302 c 0.10099,-0.0291 0.20225,-0.0553 0.30645,-0.0691 l -0.003,-1.60854 h -0.35383 l 0.35408,-1.16803 c 0,-0.0962 0.19585,-0.0962 0.19585,0 l 0.31741,1.16803 h -0.31767 c 0.004,3.22751 -9.2e-4,1.117 -10e-4,1.77576 l -0.18121,0.0235 -0.0909,0.0161 -0.0863,0.0201 -0.0813,0.0236 -0.0762,0.0265 -0.0704,0.0296 -0.0645,0.0323 -0.0581,0.0341 -0.0512,0.0363 -0.0445,0.037 -0.0373,0.0381 -0.0298,0.0386 -0.0227,0.0381 -0.016,0.0378 -0.009,0.0376 -0.003,0.0365 0.007,0.0651 0.0198,0.059 0.032,0.0561 0.0445,0.0529 0.0562,0.0511 0.0224,0.0156 c 0.0696,-0.0421 0.14496,-0.0725 0.22038,-0.10345 l 0.10073,-0.0344 0.10126,-0.0288 0.0999,-0.0233 0.097,-0.0177 0.093,-0.0124 0.0868,-0.008 0.0802,-0.003 0.15349,0.007 0.14391,0.0185 0.13163,0.0288 0.11673,0.037 0.10051,0.0447 0.0826,0.0529 0.0653,0.068 0.0328,0.0966 -0.0358,0.09 -0.0666,0.0608 -0.0816,0.0468 -0.0991,0.04 -0.11591,0.0339 -0.13058,0.0265 -0.14338,0.0175 -0.15268,0.006 -0.0784,-0.002 -0.0858,-0.007 -0.092,-0.0116 -0.0965,-0.0167 -0.0997,-0.0212 -0.10126,-0.027 -0.10073,-0.0326 c -0.0772,-0.0277 -0.15215,-0.0609 -0.22438,-0.0995 l -0.0248,0.0183 -0.056,0.0526 -0.0442,0.0556 -0.0322,0.0582 -0.0197,0.0616 -0.007,0.0664 0.007,0.0691 0.0199,0.0627 0.032,0.0577 0.0437,0.0542 0.0554,0.0503 0.052,-0.0291 0.0954,-0.0437 0.0989,-0.037 0.10073,-0.0304 0.10126,-0.0251 0.0997,-0.0196 0.097,-0.0148 0.0925,-0.0101 0.16602,-0.008 0.1527,0.006 0.14389,0.0175 0.13112,0.0273 0.11671,0.0357 0.10051,0.0429 0.0831,0.0519 0.0656,0.0669 0.0325,0.0955 -0.0328,0.0892 -0.0628,0.0632 -0.08,0.0503 -0.0981,0.0429 -0.11618,0.0357 -0.13271,0.0265 -0.14737,0.0148 -0.2345,-0.002 -0.0863,-0.006 -0.0922,-0.0106 -0.097,-0.0148 -0.0999,-0.0201 -0.10099,-0.0254 -0.10099,-0.0307 -0.0989,-0.037 -0.0957,-0.0437 -0.0533,-0.0302 -0.0552,0.0508 -0.044,0.0545 -0.032,0.0582 -0.0197,0.063 -0.007,0.0696 0.007,0.0624 0.0194,0.0582 0.0325,0.0564 0.0447,0.0542 0.0568,0.0519 0.0314,0.0228 c 0.10074,-0.0553 0.21105,-0.0916 0.32059,-0.12594 l 0.10072,-0.0265 0.0994,-0.0209 0.096,-0.0164 0.0911,-0.0114 0.0845,-0.007 0.0767,-0.003 0.1519,0.005 0.14283,0.0151 0.13005,0.0233 0.11565,0.0296 0.0994,0.0362 0.0826,0.0434 0.068,0.0587 0.0368,0.09 -0.0325,0.0974 -0.064,0.0688 -0.0826,0.0548 -0.10021,0.0471 -0.11725,0.0394 -0.13191,0.0307 -0.14444,0.0201 -0.15402,0.007 -0.0789,-0.003 -0.0858,-0.008 -0.0919,-0.0132 -0.0967,-0.0185 -0.0994,-0.0238 -0.10126,-0.0294 c -0.10926,-0.0378 -0.21879,-0.0778 -0.31845,-0.13652 l -0.0293,0.0196 -0.0565,0.0492 -0.0447,0.0513 -0.032,0.0534 -0.0191,0.0556 -0.007,0.0614 0.004,0.0458 0.0115,0.0453 0.0189,0.0442 0.0267,0.0431 0.0346,0.0423 0.0426,0.0408 0.0499,0.0397 0.0573,0.0373 0.064,0.0355 0.0698,0.0323 0.0754,0.0294 0.0802,0.0264 0.0845,0.023 0.0879,0.0193 0.0911,0.0159 0.17882,0.0236 v 1.11231 h 0.87166 c 0.1908,0 0.1908,0.1905 0,0.1905 z m 0.46421,-3.91451 0.0912,0.0357 0.0906,0.0291 0.0922,0.0243 0.0911,0.0196 0.0882,0.0151 0.15989,0.0167 0.0667,0.002 0.1383,-0.005 0.12792,-0.0159 0.11512,-0.023 0.0986,-0.0291 0.0784,-0.0315 0.056,-0.0333 -0.008,-0.009 -0.0515,-0.0328 -0.0773,-0.0344 -0.0981,-0.0312 -0.11486,-0.0251 -0.12764,-0.0164 -0.13777,-0.006 -0.0677,0.002 -0.0773,0.007 -0.0837,0.0111 -0.0884,0.0161 -0.0906,0.0212 -0.092,0.0259 c -0.0602,0.0206 -0.12178,0.0405 -0.17907,0.0675 z m -0.0272,0.83687 c 0.12258,0.0561 0.25449,0.0873 0.38693,0.11351 l 0.0887,0.0138 0.16229,0.0151 0.21532,0.001 0.12871,-0.0127 0.11379,-0.0228 0.096,-0.0296 0.0751,-0.0328 0.056,-0.0376 -0.009,-0.01 -0.0512,-0.0317 -0.0773,-0.0333 -0.0983,-0.0299 -0.11459,-0.0238 -0.12791,-0.0159 -0.13857,-0.005 -0.14763,0.007 -0.0842,0.009 -0.089,0.0135 c -0.13111,0.0259 -0.26302,0.0564 -0.3848,0.11165 z m 0.0411,0.83159 0.0797,0.0325 0.0907,0.0317 0.0919,0.0265 0.0906,0.0217 0.0879,0.0169 0.0826,0.0119 0.0756,0.007 0.0656,0.002 0.13724,-0.007 0.1271,-0.0177 0.11459,-0.0265 0.0975,-0.0331 0.0773,-0.0363 0.052,-0.0344 0.009,-0.0101 -0.0528,-0.0281 -0.0784,-0.0283 -0.0994,-0.0257 -0.11619,-0.0209 -0.12898,-0.0132 -0.1391,-0.005 -0.0656,0.002 -0.15802,0.0167 -0.0879,0.0148 -0.0911,0.0193 -0.092,0.0238 -0.0911,0.0288 -0.0792,0.0296 z m 0.43619,-9.41255 3.35928,8.05815 c 0.12657,0.28575 0.12657,0.762 0,1.0668 l -3.35902,8.02005 -3.35581,-8.02005 c -0.12657,-0.3048 -0.12657,-0.78105 0,-1.0668 l 3.35581,-8.05815 z"
             fill-rule="evenodd"
             id="path187"
             style="fill:#000000;stroke-width:0.265531"
             sodipodi:nodetypes="cccsssscsssssssssssssssscsccccccccccccccccccccccccccccccccccccccccccccccccccccccccccccccccccccccccccccccccccccccccccccccccccccccccccccccccccccccccccccccccccccccccccccccccccccccccccccccccccccccccccccccccccccccccccccccccccccccccccccccccccccccccccccccccccccsccccccccccccccccccccccccccccccccccccccccccccccccccccccccccccccccccccccccccccccccccccccccccc" /></g><g
           aria-label="h"
           transform="scale(1.0035822,0.99643057)"
           id="text569"
           style="font-weight:100;font-stretch:condensed;font-size:14.1616px;line-height:1.25;font-family:'Noto Sans';-inkscape-font-specification:'Noto Sans, Thin Condensed';fill:#000000;stroke-width:0.265531"><path
             d="m 105.78158,147.00417 q 0,0.32572 -0.0142,0.53814 0,0.21243 -0.0142,0.46733 h 0.0283 q 0.11329,-0.38236 0.3682,-0.75056 0.25491,-0.38236 0.6656,-0.62311 0.42485,-0.25491 1.04796,-0.25491 0.90634,0 1.402,0.62311 0.49565,0.60895 0.49565,1.88349 v 5.09818 h -0.3682 v -5.04153 q 0,-1.20374 -0.42485,-1.69939 -0.42485,-0.50982 -1.11876,-0.50982 -0.56647,0 -1.04796,0.32572 -0.46734,0.31155 -0.75057,0.97715 -0.26907,0.66559 -0.26907,1.71355 v 4.23432 h -0.3682 v -10.76282 h 0.3682 z"
             id="path334" /></g><g
           aria-label="c"
           transform="scale(1.0035822,0.99643057)"
           id="text569-4"
           style="font-weight:100;font-stretch:condensed;font-size:14.1616px;line-height:1.25;font-family:'Noto Sans';-inkscape-font-specification:'Noto Sans, Thin Condensed';fill:#000000;stroke-width:0.265531"><path
             d="m 121.43547,153.98584 q -0.9205,0 -1.51529,-0.46733 -0.58062,-0.4815 -0.86386,-1.33119 -0.28323,-0.8497 -0.28323,-1.99679 0,-1.86933 0.75057,-2.90313 0.75056,-1.04796 2.06759,-1.04796 0.69392,0 1.24622,0.26907 l -0.12745,0.33988 q -0.25491,-0.14161 -0.53814,-0.19826 -0.28324,-0.0566 -0.56647,-0.0566 -1.14709,0 -1.81268,0.93467 -0.65144,0.9205 -0.65144,2.66238 0,0.99131 0.24075,1.7702 0.24075,0.77889 0.75057,1.23206 0.50981,0.43901 1.33119,0.43901 0.69391,0 1.34535,-0.28323 v 0.3682 q -0.26907,0.11329 -0.63727,0.1841 -0.35404,0.085 -0.73641,0.085 z"
             id="path337" /></g></g></g></g></svg>
